<mxfile host="65bd71144e">
    <diagram id="UTinChKDrVvf448LVd9W" name="Page-1">
        <mxGraphModel dx="-383" dy="308" grid="1" gridSize="10" guides="1" tooltips="1" connect="1" arrows="1" fold="1" page="1" pageScale="1" pageWidth="827" pageHeight="1169" math="0" shadow="0">
            <root>
                <mxCell id="0"/>
                <mxCell id="1" parent="0"/>
                <mxCell id="7EbdtZ1wX-9lele891Sm-1" value="" style="rounded=0;whiteSpace=wrap;html=1;strokeWidth=1;fillColor=none;" parent="1" vertex="1">
                    <mxGeometry x="1180" y="780.66" width="1130.32" height="410" as="geometry"/>
                </mxCell>
                <mxCell id="7EbdtZ1wX-9lele891Sm-2" value="Queue manager&amp;nbsp;&lt;br&gt;pipeline" style="rounded=0;whiteSpace=wrap;html=1;strokeWidth=1;fillColor=#ffffff;fontSize=12;fontColor=#000000;" parent="1" vertex="1">
                    <mxGeometry x="1596" y="989.3400000000001" width="120" height="60" as="geometry"/>
                </mxCell>
                <mxCell id="7EbdtZ1wX-9lele891Sm-3" value="Image registry" style="shape=cylinder2;whiteSpace=wrap;html=1;boundedLbl=1;backgroundOutline=1;size=6.000000000000227;strokeWidth=1;fontSize=12;fontColor=#000000;fillColor=#E6E6E6;" parent="1" vertex="1">
                    <mxGeometry x="1765.68" y="827.1600000000001" width="100" height="70" as="geometry"/>
                </mxCell>
                <mxCell id="7EbdtZ1wX-9lele891Sm-4" style="edgeStyle=orthogonalEdgeStyle;rounded=0;orthogonalLoop=1;jettySize=auto;html=1;entryX=-0.008;entryY=0.531;entryDx=0;entryDy=0;entryPerimeter=0;strokeColor=#B3B3B3;fontSize=12;fontColor=#000000;" parent="1" source="7EbdtZ1wX-9lele891Sm-2" target="7EbdtZ1wX-9lele891Sm-3" edge="1">
                    <mxGeometry relative="1" as="geometry"/>
                </mxCell>
                <mxCell id="7EbdtZ1wX-9lele891Sm-5" value="Git&amp;nbsp;&lt;br&gt;(config)" style="shape=cylinder2;whiteSpace=wrap;html=1;boundedLbl=1;backgroundOutline=1;size=6.000000000000227;strokeWidth=1;fontSize=12;fontColor=#000000;fillColor=#E6E6E6;" parent="1" vertex="1">
                    <mxGeometry x="1765.68" y="940.0000000000001" width="100" height="70" as="geometry"/>
                </mxCell>
                <mxCell id="7EbdtZ1wX-9lele891Sm-6" style="edgeStyle=orthogonalEdgeStyle;rounded=0;orthogonalLoop=1;jettySize=auto;html=1;strokeColor=#B3B3B3;fontSize=12;fontColor=#000000;" parent="1" source="7EbdtZ1wX-9lele891Sm-2" target="7EbdtZ1wX-9lele891Sm-5" edge="1">
                    <mxGeometry relative="1" as="geometry"/>
                </mxCell>
                <mxCell id="7EbdtZ1wX-9lele891Sm-7" style="edgeStyle=orthogonalEdgeStyle;rounded=0;orthogonalLoop=1;jettySize=auto;html=1;strokeColor=#B3B3B3;fontSize=12;fontColor=#000000;entryX=1.001;entryY=0.497;entryDx=0;entryDy=0;entryPerimeter=0;" parent="1" source="7EbdtZ1wX-9lele891Sm-9" target="7EbdtZ1wX-9lele891Sm-5" edge="1">
                    <mxGeometry relative="1" as="geometry">
                        <mxPoint x="1870" y="975" as="targetPoint"/>
                        <Array as="points">
                            <mxPoint x="1888" y="975"/>
                        </Array>
                    </mxGeometry>
                </mxCell>
                <mxCell id="7EbdtZ1wX-9lele891Sm-9" value="ArgoCD&lt;br&gt;applications" style="rounded=0;whiteSpace=wrap;html=1;strokeWidth=1;fontSize=12;fontColor=#000000;fillColor=#E6E6E6;" parent="1" vertex="1">
                    <mxGeometry x="1911" y="945.0000000000001" width="120" height="60" as="geometry"/>
                </mxCell>
                <mxCell id="7EbdtZ1wX-9lele891Sm-10" value="Cluster(s)" style="ellipse;whiteSpace=wrap;html=1;aspect=fixed;strokeWidth=1;fontSize=12;fontColor=#000000;fillColor=#E6E6E6;" parent="1" vertex="1">
                    <mxGeometry x="2080.68" y="935.5000000000001" width="79" height="79" as="geometry"/>
                </mxCell>
                <mxCell id="7EbdtZ1wX-9lele891Sm-11" value="sync" style="edgeStyle=orthogonalEdgeStyle;rounded=0;orthogonalLoop=1;jettySize=auto;html=1;strokeColor=#B3B3B3;fontSize=12;fontColor=#000000;verticalAlign=bottom;labelPosition=center;verticalLabelPosition=top;align=center;" parent="1" source="7EbdtZ1wX-9lele891Sm-9" target="7EbdtZ1wX-9lele891Sm-10" edge="1">
                    <mxGeometry relative="1" as="geometry"/>
                </mxCell>
                <mxCell id="7EbdtZ1wX-9lele891Sm-12" value="Tekton" style="text;html=1;strokeColor=none;fillColor=none;align=center;verticalAlign=middle;whiteSpace=wrap;rounded=0;fontSize=16;fontColor=#000000;fontStyle=1" parent="1" vertex="1">
                    <mxGeometry x="1635.68" y="837" width="40" height="20" as="geometry"/>
                </mxCell>
                <mxCell id="7EbdtZ1wX-9lele891Sm-13" value="ArgoCD" style="text;html=1;strokeColor=none;fillColor=none;align=center;verticalAlign=middle;whiteSpace=wrap;rounded=0;fontSize=16;fontColor=#000000;fontStyle=1" parent="1" vertex="1">
                    <mxGeometry x="1926.75" y="836.0100000000001" width="88.5" height="20" as="geometry"/>
                </mxCell>
                <mxCell id="7EbdtZ1wX-9lele891Sm-15" value="Artifactory&amp;nbsp;&lt;br&gt;(config)" style="shape=cylinder2;whiteSpace=wrap;html=1;boundedLbl=1;backgroundOutline=1;size=6.000000000000227;strokeWidth=1;fontSize=12;fontColor=#000000;fillColor=#E6E6E6;" parent="1" vertex="1">
                    <mxGeometry x="1765.68" y="1055.66" width="100" height="70" as="geometry"/>
                </mxCell>
                <mxCell id="7EbdtZ1wX-9lele891Sm-16" style="edgeStyle=orthogonalEdgeStyle;rounded=0;orthogonalLoop=1;jettySize=auto;html=1;startArrow=none;endArrow=classic;strokeColor=#B3B3B3;fontFamily=Helvetica;fontColor=#000000;entryX=-0.002;entryY=0.518;entryDx=0;entryDy=0;entryPerimeter=0;fontSize=12;exitX=1;exitY=0.5;exitDx=0;exitDy=0;" parent="1" source="7EbdtZ1wX-9lele891Sm-33" target="7EbdtZ1wX-9lele891Sm-15" edge="1">
                    <mxGeometry relative="1" as="geometry"/>
                </mxCell>
                <mxCell id="7EbdtZ1wX-9lele891Sm-17" style="edgeStyle=orthogonalEdgeStyle;rounded=0;orthogonalLoop=1;jettySize=auto;html=1;startArrow=none;endArrow=classic;strokeColor=#B3B3B3;fontFamily=Helvetica;fontColor=#000000;fontSize=12;endFill=1;entryX=0.498;entryY=0;entryDx=0;entryDy=0;entryPerimeter=0;" parent="1" source="7EbdtZ1wX-9lele891Sm-5" target="7EbdtZ1wX-9lele891Sm-15" edge="1">
                    <mxGeometry relative="1" as="geometry">
                        <mxPoint x="1815.68" y="1045.66" as="targetPoint"/>
                    </mxGeometry>
                </mxCell>
                <mxCell id="7EbdtZ1wX-9lele891Sm-18" value="&amp;nbsp;(refs)&amp;nbsp;" style="edgeLabel;html=1;align=center;verticalAlign=middle;resizable=0;points=[];fontFamily=Helvetica;fontColor=#000000;" parent="7EbdtZ1wX-9lele891Sm-17" vertex="1" connectable="0">
                    <mxGeometry x="0.659" relative="1" as="geometry">
                        <mxPoint x="0.2" y="-17.18" as="offset"/>
                    </mxGeometry>
                </mxCell>
                <mxCell id="7EbdtZ1wX-9lele891Sm-19" style="edgeStyle=orthogonalEdgeStyle;rounded=0;orthogonalLoop=1;jettySize=auto;html=1;entryX=0;entryY=0.5;entryDx=0;entryDy=0;fillColor=#f5f5f5;strokeColor=#B3B3B3;" parent="1" source="7EbdtZ1wX-9lele891Sm-20" target="7EbdtZ1wX-9lele891Sm-2" edge="1">
                    <mxGeometry relative="1" as="geometry"/>
                </mxCell>
                <mxCell id="7EbdtZ1wX-9lele891Sm-20" value="db2" style="shape=cylinder2;whiteSpace=wrap;html=1;boundedLbl=1;backgroundOutline=1;size=6.000000000000227;strokeWidth=1;fillColor=#ffffff;fontSize=12;fontColor=#000000;" parent="1" vertex="1">
                    <mxGeometry x="1430" y="984.33" width="100" height="70" as="geometry"/>
                </mxCell>
                <mxCell id="7EbdtZ1wX-9lele891Sm-34" style="edgeStyle=orthogonalEdgeStyle;rounded=0;orthogonalLoop=1;jettySize=auto;html=1;fillColor=#f5f5f5;strokeColor=#b3b3b3;" parent="1" source="7EbdtZ1wX-9lele891Sm-22" target="7EbdtZ1wX-9lele891Sm-33" edge="1">
                    <mxGeometry relative="1" as="geometry">
                        <Array as="points">
                            <mxPoint x="1580" y="926"/>
                            <mxPoint x="1580" y="926"/>
                        </Array>
                    </mxGeometry>
                </mxCell>
                <mxCell id="7EbdtZ1wX-9lele891Sm-22" value="App 1" style="shape=cylinder2;whiteSpace=wrap;html=1;boundedLbl=1;backgroundOutline=1;size=6.000000000000227;strokeWidth=1;fontSize=12;fontColor=#000000;fillColor=#E6E6E6;" parent="1" vertex="1">
                    <mxGeometry x="1430" y="891.1600000000001" width="100" height="70" as="geometry"/>
                </mxCell>
                <mxCell id="7EbdtZ1wX-9lele891Sm-23" value="qmgr connection details" style="shape=note;whiteSpace=wrap;html=1;backgroundOutline=1;darkOpacity=0.05;size=9;fillColor=#E6E6E6;" parent="1" vertex="1">
                    <mxGeometry x="1220" y="897.1600000000002" width="93.68" height="42.71" as="geometry"/>
                </mxCell>
                <mxCell id="7EbdtZ1wX-9lele891Sm-24" value="Git repo" style="text;html=1;align=center;verticalAlign=middle;whiteSpace=wrap;rounded=0;fillColor=#ffffff;" parent="1" vertex="1">
                    <mxGeometry x="1470" y="950.1600000000002" width="50" height="20" as="geometry"/>
                </mxCell>
                <mxCell id="7EbdtZ1wX-9lele891Sm-25" value="mqsc" style="shape=note;whiteSpace=wrap;html=1;backgroundOutline=1;darkOpacity=0.05;fillColor=none;size=11;" parent="1" vertex="1">
                    <mxGeometry x="1292" y="989.19" width="58.8776448942042" height="38.27302631578947" as="geometry"/>
                </mxCell>
                <mxCell id="7EbdtZ1wX-9lele891Sm-26" value="db2.ini" style="shape=note;whiteSpace=wrap;html=1;backgroundOutline=1;darkOpacity=0.05;fillColor=none;size=9;" parent="1" vertex="1">
                    <mxGeometry x="1361.1223551057958" y="989.19" width="58.8776448942042" height="38.27302631578947" as="geometry"/>
                </mxCell>
                <mxCell id="7EbdtZ1wX-9lele891Sm-27" value="app source" style="shape=note;whiteSpace=wrap;html=1;backgroundOutline=1;darkOpacity=0.05;size=9;fillColor=#E6E6E6;" parent="1" vertex="1">
                    <mxGeometry x="1325.82" y="897.3700000000002" width="94.18" height="42.5" as="geometry"/>
                </mxCell>
                <mxCell id="7EbdtZ1wX-9lele891Sm-28" value="db2" style="rounded=0;whiteSpace=wrap;html=1;fillColor=#ffffff;" parent="1" vertex="1">
                    <mxGeometry x="2175" y="1009.15" width="70" height="40" as="geometry"/>
                </mxCell>
                <mxCell id="7EbdtZ1wX-9lele891Sm-29" style="edgeStyle=orthogonalEdgeStyle;rounded=0;orthogonalLoop=1;jettySize=auto;html=1;dashed=1;" parent="1" source="7EbdtZ1wX-9lele891Sm-31" target="7EbdtZ1wX-9lele891Sm-28" edge="1">
                    <mxGeometry relative="1" as="geometry"/>
                </mxCell>
                <mxCell id="7EbdtZ1wX-9lele891Sm-30" value="consumes" style="edgeLabel;html=1;align=center;verticalAlign=middle;resizable=0;points=[];" parent="7EbdtZ1wX-9lele891Sm-29" vertex="1" connectable="0">
                    <mxGeometry x="-0.0881" y="1" relative="1" as="geometry">
                        <mxPoint as="offset"/>
                    </mxGeometry>
                </mxCell>
                <mxCell id="7EbdtZ1wX-9lele891Sm-31" value="App 1" style="rounded=0;whiteSpace=wrap;html=1;fillColor=#E6E6E6;" parent="1" vertex="1">
                    <mxGeometry x="2175" y="897.16" width="70" height="40" as="geometry"/>
                </mxCell>
                <mxCell id="7EbdtZ1wX-9lele891Sm-32" value="Git repo" style="text;html=1;align=center;verticalAlign=middle;whiteSpace=wrap;rounded=0;fillColor=#ffffff;" parent="1" vertex="1">
                    <mxGeometry x="1470" y="1044.33" width="50" height="20" as="geometry"/>
                </mxCell>
                <mxCell id="7EbdtZ1wX-9lele891Sm-33" value="Application &lt;br&gt;pipeline&amp;nbsp;" style="rounded=0;whiteSpace=wrap;html=1;strokeWidth=1;fontSize=12;fontColor=#000000;fillColor=#E6E6E6;" parent="1" vertex="1">
                    <mxGeometry x="1595.68" y="896.0100000000001" width="120" height="60" as="geometry"/>
                </mxCell>
                <mxCell id="7EbdtZ1wX-9lele891Sm-14" value="watch" style="text;html=1;strokeColor=none;align=center;verticalAlign=middle;whiteSpace=wrap;rounded=0;fontSize=12;rotation=-90;fillColor=#ffffff;" parent="1" vertex="1">
                    <mxGeometry x="1871" y="964.33" width="40" height="20" as="geometry"/>
                </mxCell>
                <mxCell id="7EbdtZ1wX-9lele891Sm-37" style="edgeStyle=orthogonalEdgeStyle;rounded=0;orthogonalLoop=1;jettySize=auto;html=1;startArrow=none;endArrow=classic;strokeColor=#B3B3B3;fontFamily=Helvetica;fontColor=#000000;fontSize=12;endFill=1;entryX=0.482;entryY=1.001;entryDx=0;entryDy=0;entryPerimeter=0;exitX=0.482;exitY=0.143;exitDx=0;exitDy=0;exitPerimeter=0;" parent="1" source="7EbdtZ1wX-9lele891Sm-5" target="7EbdtZ1wX-9lele891Sm-3" edge="1">
                    <mxGeometry relative="1" as="geometry">
                        <mxPoint x="1825.48" y="1065.6599999999999" as="targetPoint"/>
                        <mxPoint x="1814" y="940" as="sourcePoint"/>
                    </mxGeometry>
                </mxCell>
                <mxCell id="7EbdtZ1wX-9lele891Sm-38" value="&amp;nbsp;(refs)&amp;nbsp;" style="edgeLabel;html=1;align=center;verticalAlign=middle;resizable=0;points=[];fontFamily=Helvetica;fontColor=#000000;" parent="7EbdtZ1wX-9lele891Sm-37" vertex="1" connectable="0">
                    <mxGeometry x="0.659" relative="1" as="geometry">
                        <mxPoint x="1.8" y="13.879999999999999" as="offset"/>
                    </mxGeometry>
                </mxCell>
            </root>
        </mxGraphModel>
    </diagram>
</mxfile>